<svg width="22" height="22" viewBox="0 0 22 22" fill="none" xmlns="http://www.w3.org/2000/svg">
<path d="M14.9973 12.833C15.0707 12.228 15.1257 11.623 15.1257 10.9997C15.1257 10.3763 15.0707 9.77134 14.9973 9.16634H18.0957C18.2423 9.75301 18.334 10.3672 18.334 10.9997C18.334 11.6322 18.2423 12.2463 18.0957 12.833H14.9973ZM13.3748 17.9297C13.9248 16.9122 14.3465 15.8122 14.6398 14.6663H17.344C16.4559 16.1956 15.0469 17.354 13.3748 17.9297V17.9297ZM13.1457 12.833H8.85565C8.76398 12.228 8.70898 11.623 8.70898 10.9997C8.70898 10.3763 8.76398 9.76218 8.85565 9.16634H13.1457C13.2282 9.76218 13.2923 10.3763 13.2923 10.9997C13.2923 11.623 13.2282 12.228 13.1457 12.833ZM11.0007 18.2963C10.2398 17.1963 9.62565 15.9772 9.24982 14.6663H12.7515C12.3757 15.9772 11.7615 17.1963 11.0007 18.2963ZM7.33398 7.33301H4.65732C5.53627 5.79962 6.94421 4.63937 8.61732 4.06967C8.06732 5.08718 7.65482 6.18718 7.33398 7.33301ZM4.65732 14.6663H7.33398C7.65482 15.8122 8.06732 16.9122 8.61732 17.9297C6.94772 17.3537 5.54176 16.1951 4.65732 14.6663V14.6663ZM3.90565 12.833C3.75898 12.2463 3.66732 11.6322 3.66732 10.9997C3.66732 10.3672 3.75898 9.75301 3.90565 9.16634H7.00398C6.93065 9.77134 6.87565 10.3763 6.87565 10.9997C6.87565 11.623 6.93065 12.228 7.00398 12.833H3.90565ZM11.0007 3.69384C11.7615 4.79384 12.3757 6.02218 12.7515 7.33301H9.24982C9.62565 6.02218 10.2398 4.79384 11.0007 3.69384V3.69384ZM17.344 7.33301H14.6398C14.3529 6.19768 13.9281 5.10175 13.3748 4.06967C15.0615 4.64717 16.464 5.81134 17.344 7.33301ZM11.0007 1.83301C5.93148 1.83301 1.83398 5.95801 1.83398 10.9997C1.83398 13.4308 2.79976 15.7624 4.51884 17.4815C5.37004 18.3327 6.38057 19.0079 7.49272 19.4686C8.60487 19.9292 9.79687 20.1663 11.0007 20.1663C13.4318 20.1663 15.7634 19.2006 17.4825 17.4815C19.2015 15.7624 20.1673 13.4308 20.1673 10.9997C20.1673 9.79589 19.9302 8.60389 19.4695 7.49174C19.0089 6.37959 18.3337 5.36907 17.4825 4.51786C16.6313 3.66666 15.6207 2.99145 14.5086 2.53078C13.3964 2.07011 12.2044 1.83301 11.0007 1.83301V1.83301Z" fill="black"/>
</svg>
