<svg width="19" height="19" viewBox="0 0 19 19" fill="none" xmlns="http://www.w3.org/2000/svg">
<path d="M18.1271 1.80049C18.2439 1.91765 18.3095 2.07632 18.3095 2.24174C18.3095 2.40716 18.2439 2.56584 18.1271 2.68299L16.8234 3.98799L14.3234 1.48799L15.6271 0.182992C15.7443 0.0658222 15.9033 0 16.069 0C16.2347 0 16.3937 0.0658222 16.5109 0.182992L18.1271 1.79924V1.80049ZM15.9396 4.87049L13.4396 2.37049L4.92339 10.888C4.8546 10.9568 4.80281 11.0407 4.77214 11.133L3.76589 14.1505C3.74765 14.2055 3.74505 14.2645 3.75841 14.3209C3.77177 14.3773 3.80055 14.4289 3.84153 14.4699C3.88251 14.5108 3.93409 14.5396 3.99048 14.553C4.04688 14.5663 4.10588 14.5637 4.16089 14.5455L7.17839 13.5392C7.2706 13.5089 7.35448 13.4576 7.42339 13.3892L15.9396 4.87174V4.87049Z" fill="#00C7FA"/>
<path fill-rule="evenodd" clip-rule="evenodd" d="M0 16.2505C0 16.7478 0.197544 17.2247 0.549175 17.5763C0.900806 17.9279 1.37772 18.1255 1.875 18.1255H15.625C16.1223 18.1255 16.5992 17.9279 16.9508 17.5763C17.3025 17.2247 17.5 16.7478 17.5 16.2505V8.75049C17.5 8.58473 17.4342 8.42576 17.3169 8.30855C17.1997 8.19134 17.0408 8.12549 16.875 8.12549C16.7092 8.12549 16.5503 8.19134 16.4331 8.30855C16.3158 8.42576 16.25 8.58473 16.25 8.75049V16.2505C16.25 16.4162 16.1842 16.5752 16.0669 16.6924C15.9497 16.8096 15.7908 16.8755 15.625 16.8755H1.875C1.70924 16.8755 1.55027 16.8096 1.43306 16.6924C1.31585 16.5752 1.25 16.4162 1.25 16.2505V2.50049C1.25 2.33473 1.31585 2.17576 1.43306 2.05855C1.55027 1.94134 1.70924 1.87549 1.875 1.87549H10C10.1658 1.87549 10.3247 1.80964 10.4419 1.69243C10.5592 1.57522 10.625 1.41625 10.625 1.25049C10.625 1.08473 10.5592 0.925757 10.4419 0.808547C10.3247 0.691336 10.1658 0.625488 10 0.625488H1.875C1.37772 0.625488 0.900806 0.823032 0.549175 1.17466C0.197544 1.52629 0 2.00321 0 2.50049V16.2505Z" fill="#00C7FA"/>
</svg>
