<svg width="85" height="20" viewBox="0 0 85 20" fill="none" xmlns="http://www.w3.org/2000/svg">
<ellipse cx="8.91177" cy="9.5" rx="8.91177" ry="9.5" fill="#5ACFE9"/>
<ellipse cx="8.91177" cy="9.5" rx="8.91177" ry="9.5" fill="#C4C4C4"/>
<path d="M7.19218 10.13L6.75565 9.6646C6.33055 9.21145 5.59945 9.25157 5.2265 9.74853L5.12502 9.88376C4.8335 10.2722 4.86324 10.8139 5.19551 11.1682L7.17325 13.2764C7.57523 13.7049 8.25824 13.6962 8.64914 13.2576L13.6 7.70222C13.9356 7.32562 13.9283 6.75514 13.5832 6.38723C13.1982 5.97688 12.5467 5.97688 12.1618 6.38723L8.65083 10.13C8.25579 10.5511 7.58721 10.5511 7.19218 10.13Z" fill="white" stroke="white"/>
<path d="M29.4624 10.2612H27.2915V14H26.0664V4.75781H29.126C30.167 4.75781 30.9668 4.99479 31.5254 5.46875C32.0882 5.94271 32.3696 6.63249 32.3696 7.53809C32.3696 8.11361 32.2131 8.61507 31.8999 9.04248C31.591 9.46989 31.1593 9.78939 30.605 10.001L32.7759 13.9238V14H31.4683L29.4624 10.2612ZM27.2915 9.26465H29.1641C29.7692 9.26465 30.2495 9.10807 30.605 8.79492C30.9647 8.48177 31.1445 8.06283 31.1445 7.53809C31.1445 6.9668 30.9731 6.52881 30.6304 6.22412C30.2918 5.91943 29.8009 5.76497 29.1577 5.76074H27.2915V9.26465ZM36.7495 14.127C35.8185 14.127 35.061 13.8223 34.4771 13.2129C33.8931 12.5993 33.6011 11.7804 33.6011 10.7563V10.5405C33.6011 9.85921 33.7301 9.25195 33.9883 8.71875C34.2507 8.18132 34.6146 7.76237 35.0801 7.46191C35.5498 7.15723 36.0576 7.00488 36.6035 7.00488C37.4964 7.00488 38.1904 7.29899 38.6855 7.88721C39.1807 8.47542 39.4282 9.31755 39.4282 10.4136V10.9023H34.7754C34.7923 11.5794 34.9891 12.1274 35.3657 12.5464C35.7466 12.9611 36.229 13.1685 36.813 13.1685C37.2277 13.1685 37.5789 13.0838 37.8667 12.9146C38.1545 12.7453 38.4062 12.521 38.6221 12.2417L39.3394 12.8003C38.7638 13.6847 37.9006 14.127 36.7495 14.127ZM36.6035 7.96973C36.1296 7.96973 35.7318 8.14323 35.4102 8.49023C35.0885 8.83301 34.8896 9.31543 34.8135 9.9375H38.2539V9.84863C38.2201 9.25195 38.0592 8.79069 37.7715 8.46484C37.4837 8.13477 37.0944 7.96973 36.6035 7.96973ZM45.0332 14C44.9655 13.8646 44.9105 13.6234 44.8682 13.2764C44.3223 13.8434 43.6706 14.127 42.9131 14.127C42.236 14.127 41.6795 13.9365 41.2437 13.5557C40.812 13.1706 40.5962 12.6839 40.5962 12.0957C40.5962 11.3805 40.867 10.8262 41.4087 10.4326C41.9546 10.0348 42.7205 9.83594 43.7065 9.83594H44.8491V9.29639C44.8491 8.8859 44.7264 8.56006 44.481 8.31885C44.2355 8.0734 43.8737 7.95068 43.3955 7.95068C42.9766 7.95068 42.6253 8.05648 42.3418 8.26807C42.0583 8.47965 41.9165 8.73568 41.9165 9.03613H40.7358C40.7358 8.69336 40.8564 8.36328 41.0977 8.0459C41.3431 7.72428 41.6732 7.47038 42.0879 7.28418C42.5068 7.09798 42.966 7.00488 43.4653 7.00488C44.2567 7.00488 44.8766 7.20378 45.3252 7.60156C45.7738 7.99512 46.0065 8.5389 46.0234 9.23291V12.394C46.0234 13.0246 46.1038 13.526 46.2646 13.8984V14H45.0332ZM43.0845 13.105C43.4526 13.105 43.8018 13.0098 44.1318 12.8193C44.4619 12.6289 44.701 12.3813 44.8491 12.0767V10.6675H43.9287C42.4899 10.6675 41.7705 11.0885 41.7705 11.9307C41.7705 12.2988 41.8932 12.5866 42.1387 12.7939C42.3841 13.0013 42.6994 13.105 43.0845 13.105ZM49.1401 14H47.9658V4.25H49.1401V14ZM52.3013 14H51.127V7.13184H52.3013V14ZM51.0317 5.31006C51.0317 5.11963 51.0889 4.95882 51.2031 4.82764C51.3216 4.69645 51.4951 4.63086 51.7236 4.63086C51.9521 4.63086 52.1257 4.69645 52.2441 4.82764C52.3626 4.95882 52.4219 5.11963 52.4219 5.31006C52.4219 5.50049 52.3626 5.65918 52.2441 5.78613C52.1257 5.91309 51.9521 5.97656 51.7236 5.97656C51.4951 5.97656 51.3216 5.91309 51.2031 5.78613C51.0889 5.65918 51.0317 5.50049 51.0317 5.31006ZM55.291 13.0415H59.3091V14H53.8564V13.1367L57.646 8.10303H53.9136V7.13184H59.1187V7.96338L55.291 13.0415ZM64.876 14C64.8083 13.8646 64.7533 13.6234 64.7109 13.2764C64.165 13.8434 63.5133 14.127 62.7559 14.127C62.0788 14.127 61.5223 13.9365 61.0864 13.5557C60.6548 13.1706 60.439 12.6839 60.439 12.0957C60.439 11.3805 60.7098 10.8262 61.2515 10.4326C61.7974 10.0348 62.5633 9.83594 63.5493 9.83594H64.6919V9.29639C64.6919 8.8859 64.5692 8.56006 64.3237 8.31885C64.0783 8.0734 63.7165 7.95068 63.2383 7.95068C62.8193 7.95068 62.4681 8.05648 62.1846 8.26807C61.901 8.47965 61.7593 8.73568 61.7593 9.03613H60.5786C60.5786 8.69336 60.6992 8.36328 60.9404 8.0459C61.1859 7.72428 61.516 7.47038 61.9307 7.28418C62.3496 7.09798 62.8088 7.00488 63.3081 7.00488C64.0994 7.00488 64.7194 7.20378 65.168 7.60156C65.6165 7.99512 65.8493 8.5389 65.8662 9.23291V12.394C65.8662 13.0246 65.9466 13.526 66.1074 13.8984V14H64.876ZM62.9272 13.105C63.2954 13.105 63.6445 13.0098 63.9746 12.8193C64.3047 12.6289 64.5438 12.3813 64.6919 12.0767V10.6675H63.7715C62.3327 10.6675 61.6133 11.0885 61.6133 11.9307C61.6133 12.2988 61.736 12.5866 61.9814 12.7939C62.2269 13.0013 62.5422 13.105 62.9272 13.105ZM67.4214 10.5088C67.4214 9.45508 67.6711 8.60872 68.1704 7.96973C68.6698 7.3265 69.3236 7.00488 70.1318 7.00488C70.9359 7.00488 71.5728 7.27995 72.0425 7.83008V4.25H73.2168V14H72.1377L72.0806 13.2637C71.6108 13.8392 70.957 14.127 70.1191 14.127C69.3236 14.127 68.674 13.8011 68.1704 13.1494C67.6711 12.4977 67.4214 11.6471 67.4214 10.5977V10.5088ZM68.5957 10.6421C68.5957 11.4207 68.7565 12.0301 69.0781 12.4702C69.3997 12.9103 69.8441 13.1304 70.4111 13.1304C71.1559 13.1304 71.6997 12.7961 72.0425 12.1274V8.97266C71.6912 8.3252 71.1517 8.00146 70.4238 8.00146C69.8483 8.00146 69.3997 8.22363 69.0781 8.66797C68.7565 9.1123 68.5957 9.77035 68.5957 10.6421ZM74.7339 10.5024C74.7339 9.82959 74.8651 9.22445 75.1274 8.68701C75.394 8.14958 75.7622 7.73486 76.2319 7.44287C76.7059 7.15088 77.2454 7.00488 77.8506 7.00488C78.7858 7.00488 79.5412 7.32861 80.1167 7.97607C80.6965 8.62354 80.9863 9.4847 80.9863 10.5596V10.6421C80.9863 11.3107 80.8573 11.9116 80.5991 12.4448C80.3452 12.9738 79.9792 13.3864 79.501 13.6826C79.027 13.9788 78.4811 14.127 77.8633 14.127C76.9323 14.127 76.1769 13.8032 75.5972 13.1558C75.0216 12.5083 74.7339 11.6514 74.7339 10.585V10.5024ZM75.9146 10.6421C75.9146 11.4038 76.0902 12.0153 76.4414 12.4766C76.7969 12.9378 77.2708 13.1685 77.8633 13.1685C78.46 13.1685 78.9339 12.9357 79.2852 12.4702C79.6364 12.0005 79.812 11.3446 79.812 10.5024C79.812 9.74919 79.6322 9.13981 79.2725 8.67432C78.917 8.20459 78.443 7.96973 77.8506 7.96973C77.2708 7.96973 76.8032 8.20036 76.4478 8.66162C76.0923 9.12288 75.9146 9.78304 75.9146 10.6421Z" fill="white"/>
</svg>
