<svg width="85" height="20" viewBox="0 0 85 20" fill="none" xmlns="http://www.w3.org/2000/svg">
<path d="M27.2915 10.3818V14H26.0728V4.75781H29.4814C30.4928 4.75781 31.2842 5.01595 31.8555 5.53223C32.431 6.0485 32.7188 6.73193 32.7188 7.58252C32.7188 8.47965 32.4373 9.17155 31.8745 9.6582C31.3159 10.1406 30.514 10.3818 29.4688 10.3818H27.2915ZM27.2915 9.38525H29.4814C30.1331 9.38525 30.6325 9.23291 30.9795 8.92822C31.3265 8.6193 31.5 8.17497 31.5 7.59521C31.5 7.04508 31.3265 6.60498 30.9795 6.2749C30.6325 5.94482 30.1564 5.77344 29.5513 5.76074H27.2915V9.38525ZM36.8511 14.127C35.9201 14.127 35.1626 13.8223 34.5786 13.2129C33.9946 12.5993 33.7026 11.7804 33.7026 10.7563V10.5405C33.7026 9.85921 33.8317 9.25195 34.0898 8.71875C34.3522 8.18132 34.7161 7.76237 35.1816 7.46191C35.6514 7.15723 36.1592 7.00488 36.7051 7.00488C37.598 7.00488 38.292 7.29899 38.7871 7.88721C39.2822 8.47542 39.5298 9.31755 39.5298 10.4136V10.9023H34.877C34.8939 11.5794 35.0907 12.1274 35.4673 12.5464C35.8481 12.9611 36.3306 13.1685 36.9146 13.1685C37.3293 13.1685 37.6805 13.0838 37.9683 12.9146C38.256 12.7453 38.5078 12.521 38.7236 12.2417L39.4409 12.8003C38.8654 13.6847 38.0021 14.127 36.8511 14.127ZM36.7051 7.96973C36.2311 7.96973 35.8333 8.14323 35.5117 8.49023C35.1901 8.83301 34.9912 9.31543 34.915 9.9375H38.3555V9.84863C38.3216 9.25195 38.1608 8.79069 37.873 8.46484C37.5853 8.13477 37.196 7.96973 36.7051 7.96973ZM42.0054 7.13184L42.0435 7.99512C42.5682 7.33496 43.2537 7.00488 44.1001 7.00488C45.5516 7.00488 46.2837 7.82373 46.2964 9.46143V14H45.1221V9.45508C45.1178 8.95996 45.0036 8.59391 44.7793 8.35693C44.5592 8.11995 44.2144 8.00146 43.7446 8.00146C43.3638 8.00146 43.0295 8.10303 42.7417 8.30615C42.4539 8.50928 42.2297 8.77588 42.0688 9.10596V14H40.8945V7.13184H42.0054ZM47.7817 10.5088C47.7817 9.45508 48.0314 8.60872 48.5308 7.96973C49.0301 7.3265 49.6839 7.00488 50.4922 7.00488C51.2962 7.00488 51.9331 7.27995 52.4028 7.83008V4.25H53.5771V14H52.498L52.4409 13.2637C51.9712 13.8392 51.3174 14.127 50.4795 14.127C49.6839 14.127 49.0343 13.8011 48.5308 13.1494C48.0314 12.4977 47.7817 11.6471 47.7817 10.5977V10.5088ZM48.9561 10.6421C48.9561 11.4207 49.1169 12.0301 49.4385 12.4702C49.7601 12.9103 50.2044 13.1304 50.7715 13.1304C51.5163 13.1304 52.0601 12.7961 52.4028 12.1274V8.97266C52.0516 8.3252 51.512 8.00146 50.7842 8.00146C50.2087 8.00146 49.7601 8.22363 49.4385 8.66797C49.1169 9.1123 48.9561 9.77035 48.9561 10.6421ZM56.6812 14H55.5068V7.13184H56.6812V14ZM55.4116 5.31006C55.4116 5.11963 55.4688 4.95882 55.583 4.82764C55.7015 4.69645 55.875 4.63086 56.1035 4.63086C56.332 4.63086 56.5055 4.69645 56.624 4.82764C56.7425 4.95882 56.8018 5.11963 56.8018 5.31006C56.8018 5.50049 56.7425 5.65918 56.624 5.78613C56.5055 5.91309 56.332 5.97656 56.1035 5.97656C55.875 5.97656 55.7015 5.91309 55.583 5.78613C55.4688 5.65918 55.4116 5.50049 55.4116 5.31006ZM61.4165 14.127C60.4855 14.127 59.728 13.8223 59.144 13.2129C58.5601 12.5993 58.2681 11.7804 58.2681 10.7563V10.5405C58.2681 9.85921 58.3971 9.25195 58.6553 8.71875C58.9176 8.18132 59.2816 7.76237 59.7471 7.46191C60.2168 7.15723 60.7246 7.00488 61.2705 7.00488C62.1634 7.00488 62.8574 7.29899 63.3525 7.88721C63.8477 8.47542 64.0952 9.31755 64.0952 10.4136V10.9023H59.4424C59.4593 11.5794 59.6561 12.1274 60.0327 12.5464C60.4136 12.9611 60.896 13.1685 61.48 13.1685C61.8947 13.1685 62.2459 13.0838 62.5337 12.9146C62.8215 12.7453 63.0732 12.521 63.2891 12.2417L64.0063 12.8003C63.4308 13.6847 62.5675 14.127 61.4165 14.127ZM61.2705 7.96973C60.7965 7.96973 60.3988 8.14323 60.0771 8.49023C59.7555 8.83301 59.5566 9.31543 59.4805 9.9375H62.9209V9.84863C62.887 9.25195 62.7262 8.79069 62.4385 8.46484C62.1507 8.13477 61.7614 7.96973 61.2705 7.96973ZM66.5708 7.13184L66.6089 7.99512C67.1336 7.33496 67.8192 7.00488 68.6655 7.00488C70.117 7.00488 70.8491 7.82373 70.8618 9.46143V14H69.6875V9.45508C69.6833 8.95996 69.569 8.59391 69.3447 8.35693C69.1247 8.11995 68.7798 8.00146 68.3101 8.00146C67.9292 8.00146 67.5949 8.10303 67.3071 8.30615C67.0194 8.50928 66.7951 8.77588 66.6343 9.10596V14H65.46V7.13184H66.5708ZM74.2261 5.46875V7.13184H75.5083V8.03955H74.2261V12.2988C74.2261 12.5739 74.2832 12.7812 74.3975 12.9209C74.5117 13.0563 74.7064 13.124 74.9814 13.124C75.1169 13.124 75.3031 13.0986 75.54 13.0479V14C75.2311 14.0846 74.9307 14.127 74.6387 14.127C74.1139 14.127 73.7183 13.9683 73.4517 13.6509C73.1851 13.3335 73.0518 12.8828 73.0518 12.2988V8.03955H71.8013V7.13184H73.0518V5.46875H74.2261ZM79.7358 14.127C78.8049 14.127 78.0474 13.8223 77.4634 13.2129C76.8794 12.5993 76.5874 11.7804 76.5874 10.7563V10.5405C76.5874 9.85921 76.7165 9.25195 76.9746 8.71875C77.237 8.18132 77.6009 7.76237 78.0664 7.46191C78.5361 7.15723 79.0439 7.00488 79.5898 7.00488C80.4827 7.00488 81.1768 7.29899 81.6719 7.88721C82.167 8.47542 82.4146 9.31755 82.4146 10.4136V10.9023H77.7617C77.7786 11.5794 77.9754 12.1274 78.3521 12.5464C78.7329 12.9611 79.2153 13.1685 79.7993 13.1685C80.214 13.1685 80.5653 13.0838 80.853 12.9146C81.1408 12.7453 81.3926 12.521 81.6084 12.2417L82.3257 12.8003C81.7502 13.6847 80.8869 14.127 79.7358 14.127ZM79.5898 7.96973C79.1159 7.96973 78.7181 8.14323 78.3965 8.49023C78.0749 8.83301 77.876 9.31543 77.7998 9.9375H81.2402V9.84863C81.2064 9.25195 81.0456 8.79069 80.7578 8.46484C80.4701 8.13477 80.0807 7.96973 79.5898 7.96973Z" fill="white"/>
<ellipse cx="8.91177" cy="9.5" rx="8.91177" ry="9.5" fill="#5ACFE9"/>
<ellipse cx="8.91177" cy="9.5" rx="8.91177" ry="9.5" fill="#5ACFE9"/>
<path d="M7.19218 10.13L6.75565 9.6646C6.33055 9.21145 5.59945 9.25157 5.2265 9.74853L5.12502 9.88376C4.8335 10.2722 4.86324 10.8139 5.19551 11.1682L7.17325 13.2764C7.57523 13.7049 8.25824 13.6962 8.64914 13.2576L13.6 7.70222C13.9356 7.32562 13.9283 6.75514 13.5832 6.38723C13.1982 5.97688 12.5467 5.97688 12.1618 6.38723L8.65083 10.13C8.25579 10.5511 7.58721 10.5511 7.19218 10.13Z" fill="white" stroke="white"/>
</svg>
