<svg width="21" height="23" viewBox="0 0 21 23" fill="none" xmlns="http://www.w3.org/2000/svg">
<path d="M5.68273 0H1.31727C0.589763 0 0 0.761276 0 1.70036V21.2996C0 22.2387 0.589763 23 1.31727 23H5.68273C6.41024 23 7 22.2387 7 21.2996V1.70036C7 0.761276 6.41024 0 5.68273 0Z" fill="#14AFC6"/>
<path d="M19.6827 0H15.3173C14.5898 0 14 0.761276 14 1.70036V21.2996C14 22.2387 14.5898 23 15.3173 23H19.6827C20.4102 23 21 22.2387 21 21.2996V1.70036C21 0.761276 20.4102 0 19.6827 0Z" fill="#14AFC6"/>
</svg>
