<svg width="20" height="20" viewBox="0 0 20 20" fill="none" xmlns="http://www.w3.org/2000/svg">
<path d="M1.25244 5.6255V1.87592C1.25244 1.71018 1.31828 1.55123 1.43547 1.43403C1.55267 1.31683 1.71162 1.25099 1.87736 1.25099C2.04309 1.25099 2.20204 1.31683 2.31924 1.43403C2.43643 1.55123 2.50227 1.71018 2.50227 1.87592V3.3845C4.22806 1.42416 6.65409 0.219194 9.25886 0.0286308C10.3208 -0.0521113 11.3889 0.0381948 12.4222 0.296101C14.3965 0.789404 16.1734 1.8732 17.5157 3.40282C18.858 4.93244 19.7017 6.8351 19.9344 8.85683C20.1671 10.8786 19.7775 12.9232 18.8178 14.7177C17.8581 16.5122 16.3738 17.9714 14.5631 18.9003C13.3407 19.5278 12.0015 19.8951 10.6299 19.9789C8.33617 20.1286 6.06144 19.4784 4.19329 18.1391C3.08272 17.3489 2.14595 16.3395 1.44086 15.173C0.735764 14.0066 0.277319 12.7079 0.0938462 11.3574C0.00240748 10.6932 -0.0222958 10.0216 0.0201061 9.35258C0.0253583 9.27068 0.0466907 9.19061 0.0828852 9.11695C0.11908 9.0433 0.169428 8.97749 0.231054 8.92329C0.292681 8.86909 0.364379 8.82756 0.442056 8.80107C0.519732 8.77458 0.601866 8.76364 0.683767 8.7689C0.765668 8.77415 0.845732 8.79548 0.919389 8.83168C0.993045 8.86787 1.05885 8.91822 1.11305 8.97985C1.16725 9.04148 1.20878 9.11318 1.23527 9.19086C1.26176 9.26853 1.27269 9.35067 1.26744 9.43257C1.25628 9.6215 1.25128 9.81075 1.25244 10C1.25244 13.8746 3.77085 17.1617 7.26163 18.3116C8.52602 18.7276 9.86872 18.8495 11.1873 18.6678C12.2032 18.53 13.1868 18.2143 14.0932 17.7354C15.8672 16.7938 17.2634 15.2708 18.0476 13.4218C18.8318 11.5729 18.9563 9.51043 18.4003 7.58055C17.8442 5.65066 16.6413 3.97073 14.9935 2.82259C13.3456 1.67444 11.3531 1.12793 9.3501 1.27474C8.52848 1.33738 7.71958 1.51405 6.94667 1.79968C5.27846 2.42319 3.83948 3.53961 2.82098 5.00057H5.00193C5.16767 5.00057 5.32662 5.06641 5.44382 5.18361C5.56101 5.30081 5.62685 5.45976 5.62685 5.6255C5.62685 5.79124 5.56101 5.95019 5.44382 6.06739C5.32662 6.18459 5.16767 6.25043 5.00193 6.25043H1.87736C1.71182 6.24977 1.55325 6.18372 1.4362 6.06667C1.31915 5.94961 1.2531 5.79104 1.25244 5.6255ZM6.87668 7.45904C6.87668 6.29667 8.10152 5.54051 9.14137 6.06295L14.1907 8.60392C15.3368 9.18135 15.3368 10.8187 14.1907 11.3961L9.14137 13.9358C8.90334 14.0556 8.6386 14.1126 8.37235 14.1012C8.1061 14.0898 7.84718 14.0106 7.62022 13.8709C7.39325 13.7312 7.20579 13.5358 7.07564 13.3033C6.9455 13.0707 6.87701 12.8087 6.87668 12.5422V7.45904Z" fill="#14AFC6"/>
</svg>
