<svg width="1626" height="1875" viewBox="0 0 1626 1875" fill="none" xmlns="http://www.w3.org/2000/svg">
<path d="M125.5 125C92.3479 125 60.5537 138.17 37.1116 161.612C13.6696 185.054 0.5 216.848 0.5 250V375C0.5 408.152 13.6696 439.946 37.1116 463.388C60.5537 486.83 92.3479 500 125.5 500H188V1625C188 1691.3 214.339 1754.89 261.223 1801.78C308.107 1848.66 371.696 1875 438 1875H1188C1254.3 1875 1317.89 1848.66 1364.78 1801.78C1411.66 1754.89 1438 1691.3 1438 1625V500H1500.5C1533.65 500 1565.45 486.83 1588.89 463.388C1612.33 439.946 1625.5 408.152 1625.5 375V250C1625.5 216.848 1612.33 185.054 1588.89 161.612C1565.45 138.17 1533.65 125 1500.5 125H1063C1063 91.8479 1049.83 60.0537 1026.39 36.6117C1002.95 13.1696 971.152 0 938 0L688 0C654.848 0 623.054 13.1696 599.612 36.6117C576.17 60.0537 563 91.8479 563 125H125.5ZM500.5 625C517.076 625 532.973 631.585 544.694 643.306C556.415 655.027 563 670.924 563 687.5V1562.5C563 1579.08 556.415 1594.97 544.694 1606.69C532.973 1618.42 517.076 1625 500.5 1625C483.924 1625 468.027 1618.42 456.306 1606.69C444.585 1594.97 438 1579.08 438 1562.5V687.5C438 670.924 444.585 655.027 456.306 643.306C468.027 631.585 483.924 625 500.5 625V625ZM813 625C829.576 625 845.473 631.585 857.194 643.306C868.915 655.027 875.5 670.924 875.5 687.5V1562.5C875.5 1579.08 868.915 1594.97 857.194 1606.69C845.473 1618.42 829.576 1625 813 1625C796.424 1625 780.527 1618.42 768.806 1606.69C757.085 1594.97 750.5 1579.08 750.5 1562.5V687.5C750.5 670.924 757.085 655.027 768.806 643.306C780.527 631.585 796.424 625 813 625V625ZM1188 687.5V1562.5C1188 1579.08 1181.42 1594.97 1169.69 1606.69C1157.97 1618.42 1142.08 1625 1125.5 1625C1108.92 1625 1093.03 1618.42 1081.31 1606.69C1069.58 1594.97 1063 1579.08 1063 1562.5V687.5C1063 670.924 1069.58 655.027 1081.31 643.306C1093.03 631.585 1108.92 625 1125.5 625C1142.08 625 1157.97 631.585 1169.69 643.306C1181.42 655.027 1188 670.924 1188 687.5V687.5Z" fill="#00C7FA"/>
</svg>
