<svg width="239" height="38" viewBox="0 0 239 38" fill="none" xmlns="http://www.w3.org/2000/svg">
<path d="M27.8891 0.633308C20.1831 0.629349 12.1428 2.35117 4.02778 4.58459C2.99732 4.79042 1.99179 5.45935 1.4601 6.28662C0.971297 7.06638 0.793733 7.84912 0.641108 8.66946C-0.146955 13.0512 -0.0511901 17.3538 0.112408 22.1214C0.14832 23.2129 0.311917 24.5062 0.825655 25.2929C1.36234 26.0875 2.28208 26.5922 3.38038 26.7575C4.78353 26.9616 6.19109 27.1349 7.602 27.277L7.29076 35.8841C7.24288 36.5689 7.58005 37.1379 7.99902 37.4654C8.3741 37.7484 8.79208 37.8741 9.22102 37.9058C10.0789 37.9701 11.0854 37.6059 11.5852 36.6619C13.7748 32.482 15.1485 30.6365 17.8867 27.8598C25.0272 28.034 31.2609 27.6402 38.3185 27.1226C40.8134 27.0583 42.5262 25.0347 42.9791 23.4187C44.3327 19.2309 44.5432 14.0615 44.6869 8.8357C44.7477 6.76457 44.0235 4.73104 42.7416 3.65639C41.5226 2.67574 40.0463 2.32049 38.6936 1.95634C34.9358 1.11225 31.1771 0.659036 27.8891 0.633308ZM38.1539 3.90872C39.5086 4.27387 40.7026 4.62516 41.4558 5.23176C42.7127 6.55677 42.6708 7.43846 42.6529 8.86836C42.5112 13.9368 42.2658 18.8559 41.1126 22.5835C40.6159 23.9739 39.75 24.9634 38.114 25.1128C30.9237 25.6403 24.685 26.048 17.4578 25.8441C17.3171 25.8397 17.1769 25.8639 17.046 25.9153C16.9151 25.9667 16.7962 26.0442 16.6966 26.143C13.6601 29.1848 12.1069 31.2985 9.79262 35.7179C9.73875 35.8188 9.62204 35.8802 9.47839 35.891C9.38163 35.8861 9.34272 35.8119 9.33674 35.7446L9.64997 26.4111C9.66892 25.9075 9.24995 25.4265 8.74519 25.3721C7.05745 25.2122 5.37432 25.0076 3.6976 24.7586C2.97338 24.6487 2.70603 24.4518 2.50752 24.1589C2.16237 23.3425 2.17035 22.8379 2.14342 22.0531C1.98181 17.328 1.90201 13.1986 2.63321 9.09002C2.70105 8.48243 2.93048 7.86099 3.17388 7.34148C3.57689 6.71608 4.19438 6.62405 4.81385 6.45385C12.7503 4.27981 20.5153 2.65397 27.8253 2.64902C31.4085 2.77767 35.1712 3.13391 38.1539 3.90872ZM10.7423 11.9142C9.64897 13.2135 9.7577 14.9779 10.6026 16.1594C11.0435 16.7778 11.7318 17.2756 12.5698 17.3884C13.6581 17.4775 14.3484 17.0401 15.0936 16.5374C16.4433 15.3737 16.5799 13.3431 15.5535 11.8766C15.0307 11.1295 14.1948 10.6812 13.3409 10.6496C12.1718 10.6614 11.3777 11.179 10.7423 11.9132V11.9142ZM22.5692 10.8534C21.4799 10.888 20.5991 11.6361 20.0614 12.4436C19.4459 13.3669 19.0868 14.5227 19.5845 15.6557C20.5422 17.8357 23.8511 17.809 25.1708 15.5934C25.7793 14.5721 25.6237 13.4114 25.1708 12.5693C24.7199 11.7282 24.0376 11.0424 23.045 10.8851C22.8878 10.8594 22.7285 10.8488 22.5692 10.8534ZM32.1706 11.0582C31.8314 11.0503 31.4823 11.082 31.1551 11.1681C29.8463 11.5144 28.7321 12.8543 28.9007 14.5692C28.9864 15.4321 29.3865 16.2732 30.1077 16.8531C30.8289 17.4319 31.8763 17.6912 32.9806 17.4666C34.2495 17.2093 35.0356 16.195 35.2979 15.2153C35.5603 14.2357 35.4944 13.2372 34.8849 12.4278C34.5678 12.0095 34.1585 11.6686 33.6882 11.4312C33.2179 11.1939 32.6992 11.0663 32.1716 11.0582H32.1706ZM13.2521 12.6643C13.4965 12.6663 13.689 12.7434 13.8876 13.0265C14.3315 13.6617 14.2078 14.6246 13.7599 15.0105C13.314 15.3964 13.0356 15.4301 12.8401 15.4043C12.6446 15.3776 12.4461 15.244 12.2685 14.9947C11.9294 14.5197 11.8296 13.7518 12.2755 13.2036C12.5129 12.8909 12.9489 12.6959 13.2531 12.6643H13.2521ZM22.7119 12.8849C22.7498 12.8909 23.1747 13.1353 23.3782 13.5143C23.5817 13.8933 23.6196 14.2456 23.4261 14.5692C22.8505 15.535 21.6265 15.2737 21.441 14.8532C21.3712 14.6929 21.424 14.0487 21.7602 13.547C22.0944 13.0433 22.5153 12.8543 22.7119 12.884V12.8849ZM33.25 13.6251C33.3118 13.7073 33.4624 14.2584 33.3457 14.6958C33.228 15.1332 33.0365 15.4034 32.5676 15.4984C31.9671 15.6211 31.6299 15.4984 31.3776 15.2935C31.1242 15.0907 30.9536 14.7473 30.9167 14.3802C30.8269 13.4698 31.1561 13.259 31.6788 13.1205C32.2873 12.972 32.9756 13.2313 33.25 13.6251Z" fill="white"/>
<path d="M57.46 4.7073C57.4759 4.45001 57.5707 4.21846 57.7463 4.01362C57.8317 3.9132 57.9391 3.83339 58.0602 3.78024C58.1814 3.7271 58.3132 3.702 58.4455 3.70686H65.2548C65.4842 3.70686 65.7207 3.80186 65.9651 3.99086C66.0796 4.07242 66.1727 4.18006 66.2366 4.30473C66.3004 4.4294 66.3332 4.56745 66.3322 4.7073V15.4865H77.7252V4.7073C77.7252 4.43418 77.8209 4.19966 78.0114 4.00274C78.203 3.80483 78.4504 3.70587 78.7566 3.70587H85.4741C85.7794 3.70587 86.0467 3.78207 86.2761 3.93347C86.5056 4.08586 86.6203 4.3283 86.6203 4.66178V36.4759C86.6203 36.8093 86.5205 37.0597 86.321 37.226C86.1235 37.3932 85.8632 37.4763 85.5429 37.4763H78.7566C78.4514 37.4763 78.203 37.3932 78.0114 37.226C77.8209 37.0597 77.7252 36.8103 77.7252 36.4759V23.5592H66.3322V36.4759C66.3322 36.7945 66.2284 37.0399 66.0229 37.2151C65.8164 37.3892 65.5371 37.4763 65.185 37.4763H58.4455C57.8041 37.4763 57.4759 37.1804 57.46 36.5897V4.7073ZM120.181 37.0904C119.982 37.2566 119.772 37.3625 119.55 37.408C119.343 37.4523 119.133 37.4755 118.921 37.4773H115.459C115.184 37.4773 114.947 37.4278 114.748 37.3289C114.549 37.2299 114.381 37.0973 114.243 36.9311C114.103 36.7584 113.987 36.5668 113.9 36.3621C113.808 36.1482 113.731 35.9279 113.671 35.703L112.961 32.7918C112.731 33.2618 112.399 33.7962 111.963 34.3948C111.491 35.0302 110.932 35.5965 110.301 36.0771C109.629 36.6015 108.826 37.0409 107.894 37.3971C106.961 37.7534 105.892 37.9315 104.684 37.9315C102.942 37.9315 101.36 37.598 99.9386 36.9311C98.5469 36.286 97.3087 35.3559 96.3055 34.2019C95.305 33.05 94.5289 31.7043 93.9792 30.1645C93.4286 28.6267 93.1532 26.9851 93.1532 25.2425V10.3468C93.1532 9.77083 93.2799 9.33543 93.5323 9.03956C93.7837 8.74368 94.1847 8.59624 94.7353 8.59624H100.03C100.689 8.59624 101.139 8.70509 101.383 8.92576C101.627 9.14544 101.75 9.57391 101.75 10.2102V25.0139C101.75 25.667 101.9 26.2845 102.197 26.8683C102.495 27.4521 102.888 27.9667 103.378 28.414C103.867 28.8613 104.421 29.2145 105.04 29.4718C105.659 29.7291 106.289 29.8577 106.931 29.8577C107.481 29.8577 108.051 29.7291 108.639 29.4718C109.232 29.2112 109.78 28.8622 110.266 28.4368C110.763 28.0053 111.172 27.4967 111.493 26.9128C111.814 26.329 111.974 25.7115 111.974 25.0604V10.2785C111.974 10.0212 112.024 9.76391 112.124 9.50564C112.223 9.24835 112.372 9.05044 112.571 8.91388C112.769 8.79316 112.957 8.71004 113.132 8.66452C113.308 8.619 113.511 8.59525 113.74 8.59525H118.921C119.577 8.59525 120.051 8.75555 120.341 9.0732C120.632 9.39184 120.777 9.81635 120.777 10.3468V35.7941C120.777 36.081 120.713 36.3472 120.583 36.5897C120.453 36.8321 120.274 37.0221 120.044 37.1577L120.181 37.0904ZM146.796 33.9515C146.383 34.3612 145.929 34.8006 145.433 35.2706C144.936 35.7406 144.389 36.181 143.794 36.5897C143.194 37.001 142.548 37.3407 141.869 37.602C141.159 37.8713 140.404 38.0062 139.644 37.9998C137.566 37.9998 135.652 37.6139 133.901 36.84C132.195 36.0972 130.658 35.0178 129.385 33.6675C128.124 32.3257 127.139 30.7454 126.428 28.9256C125.717 27.1068 125.362 25.1514 125.362 23.0585C125.362 20.9508 125.717 18.9915 126.428 17.1806C127.139 15.3697 128.124 13.7924 129.385 12.4505C130.657 11.1015 132.194 10.0258 133.901 9.28991C135.652 8.524 137.566 8.14104 139.644 8.14104C140.485 8.14104 141.253 8.26276 141.948 8.5052C142.619 8.73578 143.258 9.04894 143.851 9.43736C144.424 9.81635 144.951 10.2448 145.433 10.7218C145.914 11.1997 146.368 11.6658 146.796 12.121V1.72776C146.796 1.24288 146.946 0.834192 147.243 0.500713C147.542 0.166245 147.988 0 148.585 0H153.742C153.942 0 154.151 0.0415612 154.373 0.124684C154.594 0.208795 154.797 0.325563 154.981 0.477954C155.164 0.629355 155.312 0.811433 155.427 1.0232C155.542 1.23595 155.6 1.47047 155.6 1.72776V35.7258C155.6 36.8935 154.981 37.4773 153.742 37.4773H149.249C148.944 37.4773 148.707 37.4377 148.539 37.3625C148.373 37.2884 148.227 37.1753 148.114 37.033C147.986 36.8661 147.882 36.6826 147.805 36.4877C147.697 36.231 147.582 35.9769 147.462 35.7258L146.796 33.9515ZM133.615 23.0585C133.607 24.0148 133.766 24.9653 134.085 25.8679C134.398 26.7387 134.845 27.4937 135.426 28.13C136.013 28.7713 136.727 29.286 137.523 29.642C138.341 30.0141 139.247 30.1991 140.241 30.1991C141.218 30.1991 142.139 30.025 143.003 29.6767C143.842 29.3433 144.608 28.8528 145.26 28.2319C145.908 27.6102 146.433 26.8738 146.808 26.0608C147.197 25.2266 147.416 24.3321 147.462 23.3772V23.0585C147.465 22.1069 147.278 21.1641 146.911 20.2848C146.556 19.4228 146.039 18.6357 145.387 17.9653C144.734 17.2957 143.955 16.7589 143.094 16.385C142.195 15.9942 141.222 15.7965 140.241 15.8051C139.247 15.8051 138.341 15.9981 137.523 16.385C136.705 16.7709 136.007 17.2984 135.426 17.9653C134.836 18.648 134.381 19.4349 134.085 20.2848C133.77 21.176 133.611 22.1142 133.616 23.0585H133.615ZM182.215 33.9515C181.802 34.3612 181.347 34.8006 180.851 35.2706C180.354 35.7406 179.807 36.181 179.212 36.5897C178.612 37.001 177.966 37.3407 177.286 37.602C176.577 37.8713 175.822 38.0062 175.062 37.9998C172.984 37.9998 171.07 37.6139 169.32 36.84C167.613 36.0973 166.076 35.0179 164.803 33.6675C163.543 32.3257 162.557 30.7454 161.846 28.9256C161.136 27.1068 160.78 25.1514 160.78 23.0585C160.78 20.9508 161.136 18.9915 161.846 17.1806C162.557 15.3697 163.542 13.7924 164.803 12.4505C166.075 11.1014 167.612 10.0257 169.32 9.28991C171.07 8.524 172.984 8.14104 175.062 8.14104C175.903 8.14104 176.671 8.26276 177.366 8.5052C178.037 8.73578 178.676 9.04894 179.269 9.43736C179.842 9.81635 180.369 10.2448 180.851 10.7218C181.333 11.1997 181.786 11.6658 182.214 12.121V1.72776C182.214 1.24288 182.364 0.834192 182.661 0.500713C182.961 0.166245 183.406 0 184.003 0H189.16C189.36 0 189.569 0.0415612 189.791 0.124684C190.013 0.208795 190.216 0.325563 190.399 0.477954C190.582 0.629355 190.731 0.811433 190.846 1.0232C190.96 1.23595 191.018 1.47047 191.018 1.72776V35.7258C191.018 36.8935 190.399 37.4773 189.16 37.4773H184.667C184.362 37.4773 184.125 37.4377 183.957 37.3625C183.791 37.2883 183.646 37.1752 183.533 37.033C183.405 36.8661 183.301 36.6826 183.224 36.4877C183.115 36.231 183.001 35.9769 182.88 35.7258L182.214 33.9515H182.215ZM169.033 23.0585C169.025 24.0148 169.184 24.9653 169.503 25.8679C169.817 26.7387 170.264 27.4937 170.844 28.13C171.432 28.7714 172.146 29.2861 172.942 29.642C173.76 30.0141 174.665 30.1991 175.658 30.1991C176.636 30.1991 177.557 30.025 178.421 29.6767C179.26 29.3434 180.027 28.8529 180.679 28.2319C181.326 27.61 181.851 26.8737 182.225 26.0608C182.615 25.2266 182.834 24.3321 182.88 23.3772V23.0585C182.883 22.1069 182.696 21.1641 182.329 20.2848C181.974 19.4228 181.456 18.6357 180.805 17.9653C180.152 17.2957 179.373 16.7589 178.512 16.385C177.613 15.9942 176.64 15.7965 175.658 15.8051C174.665 15.8051 173.759 15.9981 172.942 16.385C172.124 16.7709 171.425 17.2984 170.844 17.9653C170.254 18.648 169.799 19.4349 169.503 20.2848C169.188 21.176 169.029 22.1142 169.034 23.0585H169.033ZM197.117 1.75052C197.117 1.26564 197.238 0.856952 197.483 0.523473C197.728 0.189004 198.148 0.0227597 198.744 0.0227597H204.36C204.514 0.0227597 204.674 0.0643209 204.842 0.147443C205.018 0.237084 205.177 0.356647 205.312 0.500713C205.457 0.652115 205.579 0.834192 205.679 1.04596C205.778 1.25871 205.828 1.49323 205.828 1.75052V35.7258C205.828 36.3017 205.664 36.7371 205.335 37.033C205.006 37.3289 204.582 37.4763 204.063 37.4763H198.744C198.148 37.4763 197.728 37.3279 197.483 37.033C197.238 36.7371 197.117 36.3007 197.117 35.7258V1.75052ZM235.722 34.0198C234.393 35.2378 232.856 36.2119 231.183 36.8964C229.489 37.5889 227.673 37.9407 225.841 37.9315C223.746 37.9315 221.768 37.5525 219.904 36.7935C218.081 36.0629 216.416 34.9942 214.998 33.6448C213.585 32.2928 212.448 30.6826 211.651 28.9028C210.825 27.084 210.413 25.1059 210.413 22.9675C210.413 21.6336 210.577 20.3412 210.906 19.0904C211.224 17.8666 211.694 16.6867 212.304 15.5775C212.908 14.4859 213.647 13.4736 214.505 12.5643C215.36 11.6536 216.336 10.8617 217.405 10.2102C218.493 9.55032 219.664 9.0378 220.889 8.68629C222.178 8.31772 223.513 8.1341 224.855 8.14104C226.123 8.14104 227.353 8.30828 228.545 8.64176C229.738 8.97523 230.858 9.44527 231.904 10.0509C232.952 10.6575 233.909 11.3858 234.781 12.2348C235.641 13.0697 236.395 14.0051 237.028 15.0204C237.654 16.0283 238.144 17.1141 238.484 18.2493C238.827 19.3942 239 20.5728 239 21.785C239 22.5737 238.988 23.2179 238.965 23.7186C238.942 24.2183 238.823 24.6171 238.61 24.912C238.395 25.2088 238.041 25.4127 237.543 25.5255C237.047 25.6403 236.316 25.6967 235.355 25.6967H218.849C219.002 26.6664 219.311 27.4779 219.777 28.131C220.209 28.7491 220.757 29.2779 221.393 29.6875C222.005 30.0745 222.654 30.3505 223.342 30.5188C223.979 30.6788 224.633 30.7626 225.29 30.7681C225.841 30.7681 226.406 30.7107 226.986 30.5979C227.559 30.4865 228.122 30.3344 228.672 30.1427C229.187 29.9653 229.685 29.7445 230.162 29.4827C230.612 29.2333 230.976 28.9711 231.251 28.699C231.495 28.5011 231.706 28.3536 231.881 28.2547C232.057 28.1557 232.244 28.1072 232.443 28.1072C232.642 28.1072 232.844 28.1765 233.051 28.3121C233.303 28.4864 233.537 28.6842 233.75 28.9028L236.18 31.632C236.347 31.8299 236.455 32.008 236.501 32.1664C236.547 32.3257 236.57 32.489 236.57 32.6552C236.57 32.959 236.485 33.2202 236.317 33.4399C236.148 33.6609 235.947 33.8563 235.721 34.0198H235.722ZM224.695 15.0768C224.098 15.0768 223.522 15.1946 222.964 15.4291C222.398 15.6688 221.869 15.9866 221.393 16.3731C220.904 16.767 220.465 17.2142 220.075 17.715C219.703 18.187 219.384 18.698 219.124 19.2389H230.838C230.531 18.6687 230.182 18.1214 229.795 17.6012C229.428 17.1076 228.996 16.6641 228.512 16.2821C228.016 15.8956 227.458 15.5957 226.861 15.3954C226.242 15.1827 225.52 15.0768 224.695 15.0768Z" fill="white"/>
</svg>
