<svg width="31" height="31" viewBox="0 0 31 31" fill="none" xmlns="http://www.w3.org/2000/svg">
<path d="M15.5 27.9C18.7887 27.9 21.9427 26.5936 24.2681 24.2681C26.5936 21.9427 27.9 18.7887 27.9 15.5C27.9 12.2113 26.5936 9.05733 24.2681 6.73188C21.9427 4.40642 18.7887 3.1 15.5 3.1C12.2113 3.1 9.05733 4.40642 6.73188 6.73188C4.40642 9.05733 3.1 12.2113 3.1 15.5C3.1 18.7887 4.40642 21.9427 6.73188 24.2681C9.05733 26.5936 12.2113 27.9 15.5 27.9ZM15.5 31C6.93935 31 0 24.0606 0 15.5C0 6.93935 6.93935 0 15.5 0C24.0606 0 31 6.93935 31 15.5C31 24.0606 24.0606 31 15.5 31Z" fill="white"/>
<path d="M23.25 10.7689C22.6796 11.0169 22.0673 11.1874 21.4241 11.2618C22.0813 10.8743 22.5835 10.2605 22.8222 9.53044C22.1959 9.89541 21.5126 10.1522 20.801 10.2899C20.5017 9.97618 20.1415 9.72668 19.7426 9.55666C19.3437 9.38665 18.9143 9.29967 18.4806 9.30104C16.7245 9.30104 15.3016 10.7038 15.3016 12.432C15.3016 12.6769 15.3295 12.9156 15.3837 13.145C14.1241 13.0852 12.8908 12.7635 11.7624 12.2004C10.634 11.6373 9.63546 10.8451 8.83035 9.87454C8.54757 10.3505 8.39869 10.8941 8.39945 11.4478C8.39945 12.5328 8.9621 13.4938 9.8146 14.0533C9.30999 14.0375 8.81618 13.9032 8.3731 13.6612V13.6999C8.37789 14.4276 8.63474 15.1311 9.09992 15.6907C9.5651 16.2503 10.2099 16.6313 10.9244 16.7689C10.4553 16.893 9.96447 16.911 9.48755 16.8216C9.69545 17.4476 10.0931 17.9934 10.6253 18.3831C11.1575 18.7728 11.7978 18.9871 12.4573 18.9963C11.3258 19.8683 9.93649 20.3394 8.50795 20.3355C8.2522 20.3355 7.99955 20.32 7.75 20.2921C9.20773 21.2148 10.898 21.7035 12.6232 21.701C18.4729 21.701 21.6705 16.9301 21.6705 12.7916L21.6597 12.3855C22.2833 11.9473 22.8221 11.3996 23.25 10.7689Z" fill="white"/>
</svg>
