<svg width="21" height="18" viewBox="0 0 21 18" fill="none" xmlns="http://www.w3.org/2000/svg">
<g clip-path="url(#clip0)">
<path d="M3.28125 1.125C2.93315 1.125 2.59931 1.24353 2.35317 1.4545C2.10703 1.66548 1.96875 1.95163 1.96875 2.25V3.375C1.96875 3.67337 2.10703 3.95952 2.35317 4.1705C2.59931 4.38147 2.93315 4.5 3.28125 4.5H3.9375V14.625C3.9375 15.2217 4.21406 15.794 4.70634 16.216C5.19863 16.6379 5.86631 16.875 6.5625 16.875H14.4375C15.1337 16.875 15.8014 16.6379 16.2937 16.216C16.7859 15.794 17.0625 15.2217 17.0625 14.625V4.5H17.7188C18.0668 4.5 18.4007 4.38147 18.6468 4.1705C18.893 3.95952 19.0312 3.67337 19.0312 3.375V2.25C19.0312 1.95163 18.893 1.66548 18.6468 1.4545C18.4007 1.24353 18.0668 1.125 17.7188 1.125H13.125C13.125 0.826631 12.9867 0.540483 12.7406 0.329505C12.4944 0.118526 12.1606 0 11.8125 0L9.1875 0C8.8394 0 8.50556 0.118526 8.25942 0.329505C8.01328 0.540483 7.875 0.826631 7.875 1.125H3.28125ZM7.21875 5.625C7.3928 5.625 7.55972 5.68426 7.68279 5.78975C7.80586 5.89524 7.875 6.03832 7.875 6.1875V14.0625C7.875 14.2117 7.80586 14.3548 7.68279 14.4602C7.55972 14.5657 7.3928 14.625 7.21875 14.625C7.0447 14.625 6.87778 14.5657 6.75471 14.4602C6.63164 14.3548 6.5625 14.2117 6.5625 14.0625V6.1875C6.5625 6.03832 6.63164 5.89524 6.75471 5.78975C6.87778 5.68426 7.0447 5.625 7.21875 5.625V5.625ZM10.5 5.625C10.674 5.625 10.841 5.68426 10.964 5.78975C11.0871 5.89524 11.1562 6.03832 11.1562 6.1875V14.0625C11.1562 14.2117 11.0871 14.3548 10.964 14.4602C10.841 14.5657 10.674 14.625 10.5 14.625C10.326 14.625 10.159 14.5657 10.036 14.4602C9.91289 14.3548 9.84375 14.2117 9.84375 14.0625V6.1875C9.84375 6.03832 9.91289 5.89524 10.036 5.78975C10.159 5.68426 10.326 5.625 10.5 5.625V5.625ZM14.4375 6.1875V14.0625C14.4375 14.2117 14.3684 14.3548 14.2453 14.4602C14.1222 14.5657 13.9553 14.625 13.7812 14.625C13.6072 14.625 13.4403 14.5657 13.3172 14.4602C13.1941 14.3548 13.125 14.2117 13.125 14.0625V6.1875C13.125 6.03832 13.1941 5.89524 13.3172 5.78975C13.4403 5.68426 13.6072 5.625 13.7812 5.625C13.9553 5.625 14.1222 5.68426 14.2453 5.78975C14.3684 5.89524 14.4375 6.03832 14.4375 6.1875V6.1875Z" fill="black"/>
</g>
<defs>
<clipPath id="clip0">
<rect width="21" height="18" fill="white"/>
</clipPath>
</defs>
</svg>
