<svg width="32" height="31" viewBox="0 0 32 31" fill="none" xmlns="http://www.w3.org/2000/svg">
<path d="M13.9136 10.7524V12.8867H12.3008V15.4953H13.9136V23.25H17.2288V15.4953H19.4528C19.4528 15.4953 19.6624 14.2445 19.7632 12.8759H17.2416V11.0933C17.2416 10.8252 17.6032 10.4672 17.9616 10.4672H19.7664V7.75H17.3104C13.832 7.75 13.9136 10.3618 13.9136 10.7524Z" fill="white"/>
<path d="M16 27.9C19.3948 27.9 22.6505 26.5936 25.051 24.2681C27.4514 21.9427 28.8 18.7887 28.8 15.5C28.8 12.2113 27.4514 9.05733 25.051 6.73188C22.6505 4.40642 19.3948 3.1 16 3.1C12.6052 3.1 9.3495 4.40642 6.94903 6.73188C4.54857 9.05733 3.2 12.2113 3.2 15.5C3.2 18.7887 4.54857 21.9427 6.94903 24.2681C9.3495 26.5936 12.6052 27.9 16 27.9ZM16 31C7.1632 31 0 24.0606 0 15.5C0 6.93935 7.1632 0 16 0C24.8368 0 32 6.93935 32 15.5C32 24.0606 24.8368 31 16 31Z" fill="white"/>
</svg>
