<svg width="32" height="31" viewBox="0 0 32 31" fill="none" xmlns="http://www.w3.org/2000/svg">
<path d="M16 27.9C19.3948 27.9 22.6505 26.5936 25.051 24.2681C27.4514 21.9427 28.8 18.7887 28.8 15.5C28.8 12.2113 27.4514 9.05733 25.051 6.73188C22.6505 4.40642 19.3948 3.1 16 3.1C12.6052 3.1 9.3495 4.40642 6.94903 6.73188C4.54857 9.05733 3.2 12.2113 3.2 15.5C3.2 18.7887 4.54857 21.9427 6.94903 24.2681C9.3495 26.5936 12.6052 27.9 16 27.9ZM16 31C7.1632 31 0 24.0606 0 15.5C0 6.93935 7.1632 0 16 0C24.8368 0 32 6.93935 32 15.5C32 24.0606 24.8368 31 16 31Z" fill="white"/>
<path d="M20.2733 10.9387C20.1024 10.9387 19.9354 10.9878 19.7933 11.0798C19.6512 11.1718 19.5405 11.3025 19.4751 11.4554C19.4097 11.6084 19.3926 11.7767 19.4259 11.939C19.4593 12.1014 19.5415 12.2505 19.6624 12.3676C19.7832 12.4846 19.9372 12.5644 20.1048 12.5967C20.2724 12.629 20.4461 12.6124 20.604 12.549C20.7618 12.4857 20.8968 12.3784 20.9917 12.2408C21.0866 12.1031 21.1373 11.9413 21.1373 11.7757C21.1373 11.5538 21.0463 11.3409 20.8843 11.1839C20.7222 11.0269 20.5025 10.9387 20.2733 10.9387ZM23.5853 12.6267C23.5713 12.048 23.4594 11.4754 23.2541 10.9318C23.071 10.4666 22.7861 10.0454 22.4189 9.69719C22.0624 9.33967 21.6266 9.06538 21.1445 8.89507C20.5848 8.69011 19.9931 8.57924 19.3949 8.56724C18.6317 8.52539 18.3869 8.52539 16.4285 8.52539C14.4701 8.52539 14.2253 8.52539 13.4621 8.56724C12.8639 8.57924 12.2722 8.69011 11.7125 8.89507C11.2313 9.0671 10.7959 9.34116 10.4381 9.69719C10.0691 10.0426 9.78592 10.4647 9.61012 10.9318C9.39855 11.474 9.28411 12.0472 9.27172 12.6267C9.22852 13.366 9.22852 13.6032 9.22852 15.5004C9.22852 17.3976 9.22852 17.6347 9.27172 18.3741C9.28411 18.9536 9.39855 19.5268 9.61012 20.069C9.78592 20.536 10.0691 20.9582 10.4381 21.3036C10.7959 21.6596 11.2313 21.9337 11.7125 22.1057C12.2722 22.3107 12.8639 22.4215 13.4621 22.4335C14.2253 22.4754 14.4701 22.4754 16.4285 22.4754C18.3869 22.4754 18.6317 22.4754 19.3949 22.4335C19.9931 22.4215 20.5848 22.3107 21.1445 22.1057C21.6266 21.9354 22.0624 21.6611 22.4189 21.3036C22.7877 20.9566 23.0729 20.5351 23.2541 20.069C23.4594 19.5254 23.5713 18.9528 23.5853 18.3741C23.5853 17.6347 23.6285 17.3976 23.6285 15.5004C23.6285 13.6032 23.6285 13.366 23.5853 12.6267ZM22.2893 18.2904C22.2841 18.7331 22.2013 19.1718 22.0445 19.5877C21.9296 19.8913 21.7449 20.1656 21.5045 20.3899C21.271 20.6204 20.9884 20.7989 20.6765 20.913C20.2472 21.0649 19.7944 21.1451 19.3373 21.1501C18.6173 21.185 18.3509 21.192 16.4573 21.192C14.5637 21.192 14.2973 21.192 13.5773 21.1501C13.1028 21.1587 12.6302 21.088 12.1805 20.9409C11.8823 20.821 11.6127 20.6429 11.3885 20.4178C11.1495 20.1937 10.9672 19.9192 10.8557 19.6156C10.6799 19.1938 10.5824 18.7451 10.5677 18.2904C10.5677 17.5929 10.5245 17.3348 10.5245 15.5004C10.5245 13.666 10.5245 13.4079 10.5677 12.7104C10.5709 12.2578 10.6562 11.8092 10.8197 11.3851C10.9465 11.0907 11.141 10.8283 11.3885 10.6179C11.6073 10.3781 11.8776 10.1876 12.1805 10.0599C12.6194 9.90647 13.082 9.82628 13.5485 9.82274C14.2685 9.82274 14.5349 9.78089 16.4285 9.78089C18.3221 9.78089 18.5885 9.78089 19.3085 9.82274C19.7655 9.82782 20.2184 9.90801 20.6477 10.0599C20.9749 10.1775 21.2686 10.3688 21.5045 10.6179C21.7405 10.8321 21.9248 11.0941 22.0445 11.3851C22.2045 11.8099 22.2874 12.2583 22.2893 12.7104C22.3253 13.4079 22.3325 13.666 22.3325 15.5004C22.3325 17.3348 22.3253 17.5929 22.2893 18.2904ZM16.4285 11.9222C15.6983 11.9236 14.9849 12.1346 14.3784 12.5286C13.772 12.9226 13.2997 13.482 13.0212 14.1359C12.7428 14.7899 12.6706 15.5091 12.814 16.2027C12.9573 16.8964 13.3096 17.5333 13.8265 18.033C14.3433 18.5327 15.0015 18.8728 15.7178 19.0103C16.4341 19.1478 17.1764 19.0765 17.8509 18.8055C18.5254 18.5345 19.1018 18.0759 19.5073 17.4876C19.9129 16.8993 20.1293 16.2078 20.1293 15.5004C20.1303 15.0297 20.0351 14.5634 19.8494 14.1284C19.6637 13.6934 19.391 13.2983 19.0471 12.9657C18.7031 12.6332 18.2947 12.3698 17.8453 12.1907C17.3959 12.0116 16.9144 11.9204 16.4285 11.9222ZM16.4285 17.8231C15.9543 17.8231 15.4908 17.6868 15.0965 17.4316C14.7022 17.1764 14.3949 16.8137 14.2134 16.3892C14.032 15.9648 13.9845 15.4978 14.077 15.0473C14.1695 14.5967 14.3978 14.1828 14.7332 13.858C15.0685 13.5332 15.4957 13.312 15.9608 13.2223C16.4259 13.1327 16.9079 13.1787 17.346 13.3545C17.7841 13.5303 18.1586 13.828 18.422 14.21C18.6855 14.5919 18.8261 15.041 18.8261 15.5004C18.8261 15.8054 18.7641 16.1074 18.6436 16.3892C18.5231 16.671 18.3465 16.9271 18.1239 17.1428C17.9012 17.3584 17.6369 17.5295 17.346 17.6463C17.0551 17.763 16.7434 17.8231 16.4285 17.8231Z" fill="white"/>
</svg>
