<svg width="39" height="42" viewBox="0 0 39 42" fill="none" xmlns="http://www.w3.org/2000/svg">
<path d="M31 15.5C31 24.0604 24.0604 31 15.5 31C6.93959 31 0 24.0604 0 15.5C0 6.93959 6.93959 0 15.5 0C24.0604 0 31 6.93959 31 15.5Z" fill="#3871A7"/>
<path d="M38.5 30.75C38.5 36.6871 33.6871 41.5 27.75 41.5C21.8129 41.5 17 36.6871 17 30.75C17 24.8129 21.8129 20 27.75 20C33.6871 20 38.5 24.8129 38.5 30.75Z" fill="white"/>
<path d="M26 25H29V36H26V25Z" fill="#3871A7"/>
<path d="M22 29H33V32H22V29Z" fill="#3871A7"/>
<path d="M8 12.2402L10.1739 10.1728L16.862 17.2053L14.6881 19.2727L8 12.2402Z" fill="white"/>
<path d="M27.0352 4.88086L29.0385 7.11392L15.032 19.6796L13.0287 17.4465L27.0352 4.88086Z" fill="white"/>
<path d="M32.5003 0L34.5036 2.23307L28.9994 7.17102L26.9961 4.93795L32.5003 0Z" fill="#467BAD"/>
</svg>
